<svg id="Capa_1" data-name="Capa 1" xmlns="http://www.w3.org/2000/svg" viewBox="0 0 38.01 32.59"><defs><style>.cls-1{fill:#fff;}.cls-2{fill:#ff2e63;}</style></defs><path class="cls-1" d="M530.29-244.71a7.45,7.45,0,0,1-.92-.19.89.89,0,0,1-.56-.76l-1.86-10c-.35-1.92-.71-3.85-1.05-5.77a.35.35,0,0,0-.27-.31l-3.93-1.55a1,1,0,0,1-.64-1.34,1,1,0,0,1,1.35-.57l4.68,1.84a1.14,1.14,0,0,1,.72,1q.66,3.65,1.33,7.29c.41,2.24.81,4.47,1.22,6.71.09.46.18.93.26,1.39,0,.18.11.25.31.25H546.5c.16,0,.26,0,.32-.21,1.15-3.63,2.32-7.26,3.48-10.89l0-.17-2.43-.12-5.39-.23-5.11-.2-5.48-.25a1,1,0,0,1-.9-1.06,1,1,0,0,1,1.06-1c1,0,2.08.09,3.13.13l3.62.17,5.2.23,3.38.14,4.39.19a1,1,0,0,1,.91,1.22c-.32,1.11-.68,2.22-1,3.32q-1.56,4.9-3.14,9.8a1.11,1.11,0,0,1-1.29.94H532.49a.44.44,0,0,0-.5.36c-.25.72-.51,1.43-.78,2.2h16a1,1,0,0,1,.9.34.83.83,0,0,1,.11.87.84.84,0,0,1-.79.51h-.9a3.07,3.07,0,0,1-.22,4.25,3,3,0,0,1-4,.19,3.08,3.08,0,0,1-.47-4.42h-6.57a3.09,3.09,0,0,1,.68,2.64,3,3,0,0,1-1.23,1.87,3,3,0,0,1-3.7-.15,2.93,2.93,0,0,1-1.11-2.1,3,3,0,0,1,.78-2.27h-.71a.85.85,0,0,1-.85-1.2C529.57-242.72,529.94-243.72,530.29-244.71Zm2.78,4.89a1.33,1.33,0,0,0-1.37,1.32,1.34,1.34,0,0,0,1.33,1.37,1.32,1.32,0,0,0,1.36-1.33A1.31,1.31,0,0,0,533.07-239.82Zm11.21,0a1.37,1.37,0,0,0-1.38,1.36,1.37,1.37,0,0,0,1.35,1.33,1.35,1.35,0,0,0,1.37-1.33A1.35,1.35,0,0,0,544.28-239.82Z" transform="translate(-520.99 268)"/><circle class="cls-2" cx="31.25" cy="6.77" r="6.77"/></svg>