<svg id="Capa_1" data-name="Capa 1" xmlns="http://www.w3.org/2000/svg" viewBox="0 0 100 100"><defs><style>.cls-1{fill:#fff;fill-rule:evenodd;}</style></defs><path class="cls-1" d="M581.5-182.75a50,50,0,0,0-50,50,50,50,0,0,0,50,50,50.05,50.05,0,0,0,50-50A50.05,50.05,0,0,0,581.5-182.75Zm33,23.05a42.53,42.53,0,0,1,9.65,26.57c-1.41-.27-15.51-3.14-29.72-1.36-.32-.7-.6-1.46-.92-2.22-.87-2.06-1.84-4.17-2.82-6.18C606.45-149.29,613.6-158.51,614.53-159.7Zm-33-15.67a42.61,42.61,0,0,1,28.31,10.73c-.76,1.09-7.21,9.71-22.4,15.4a231,231,0,0,0-15.94-25A43.37,43.37,0,0,1,581.5-175.37Zm-18.17,4a270.23,270.23,0,0,1,15.84,24.67,160,160,0,0,1-39.48,5.21A42.89,42.89,0,0,1,563.33-171.36ZM538.77-132.7V-134a155.69,155.69,0,0,0,43.87-6.07c1.25,2.39,2.38,4.83,3.47,7.27l-1.68.48c-22,7.11-33.73,26.52-34.71,28.15A42.6,42.6,0,0,1,538.77-132.7ZM581.5-90a42.39,42.39,0,0,1-26.19-9c.76-1.57,9.43-18.27,33.51-26.68.11,0,.16,0,.27-.11a176.38,176.38,0,0,1,9.11,32.38A42,42,0,0,1,581.5-90Zm23.81-7.32a184.25,184.25,0,0,0-8.3-30.42,62.26,62.26,0,0,1,26.57,1.84A42.3,42.3,0,0,1,605.31-97.34Z" transform="translate(-531.5 182.75)"/></svg>