<svg id="Capa_1" data-name="Capa 1" xmlns="http://www.w3.org/2000/svg" viewBox="0 0 85 85"><defs><style>.cls-1{fill:#fff;}</style></defs><path class="cls-1" d="M616.5-249.34c11.35,0,12.69,0,17.17.25a23.4,23.4,0,0,1,7.9,1.46,13.15,13.15,0,0,1,4.88,3.18,13.15,13.15,0,0,1,3.18,4.88,23.4,23.4,0,0,1,1.46,7.9c.21,4.48.25,5.82.25,17.17s0,12.69-.25,17.17a23.4,23.4,0,0,1-1.46,7.9,13.15,13.15,0,0,1-3.18,4.88,13.15,13.15,0,0,1-4.88,3.18,23.4,23.4,0,0,1-7.9,1.46c-4.48.21-5.82.25-17.17.25s-12.69,0-17.17-.25a23.4,23.4,0,0,1-7.9-1.46,13.15,13.15,0,0,1-4.88-3.18,13.15,13.15,0,0,1-3.18-4.88,23.4,23.4,0,0,1-1.46-7.9c-.21-4.48-.25-5.82-.25-17.17s0-12.69.25-17.17a23.4,23.4,0,0,1,1.46-7.9,13.15,13.15,0,0,1,3.18-4.88,13.15,13.15,0,0,1,4.88-3.18,23.4,23.4,0,0,1,7.9-1.46c4.48-.21,5.82-.25,17.17-.25m0-7.66c-11.54,0-13,.05-17.52.26a31,31,0,0,0-10.32,2,21,21,0,0,0-7.53,4.9,21,21,0,0,0-4.9,7.53,31,31,0,0,0-2,10.32c-.21,4.53-.26,6-.26,17.52s0,13,.26,17.52a31,31,0,0,0,2,10.32,21,21,0,0,0,4.9,7.53,21,21,0,0,0,7.53,4.9,31,31,0,0,0,10.32,2c4.53.21,6,.26,17.52.26s13-.05,17.52-.26a31,31,0,0,0,10.32-2,21,21,0,0,0,7.53-4.9,21,21,0,0,0,4.9-7.53,31,31,0,0,0,2-10.32c.21-4.53.26-6,.26-17.52s0-13-.26-17.52a31,31,0,0,0-2-10.32,21,21,0,0,0-4.9-7.53,21,21,0,0,0-7.53-4.9,31,31,0,0,0-10.32-2c-4.53-.21-6-.26-17.52-.26Z" transform="translate(-574 257)"/><path class="cls-1" d="M616.5-236.32a21.82,21.82,0,0,0-21.82,21.82,21.82,21.82,0,0,0,21.82,21.82,21.82,21.82,0,0,0,21.82-21.82A21.82,21.82,0,0,0,616.5-236.32Zm0,36a14.18,14.18,0,0,1-14.17-14.17,14.18,14.18,0,0,1,14.17-14.17,14.18,14.18,0,0,1,14.17,14.17A14.18,14.18,0,0,1,616.5-200.33Z" transform="translate(-574 257)"/><circle class="cls-1" cx="65.19" cy="19.81" r="5.1"/></svg>