<svg id="Capa_1" data-name="Capa 1" xmlns="http://www.w3.org/2000/svg" viewBox="0 0 37.34 37.47"><defs><style>.cls-1{fill:#fff;}</style></defs><path class="cls-1" d="M613.32-87.33,610-84c-1.27-1.34-2.57-2.77-3.92-4.15-1.61-1.65-3.29-3.23-4.87-4.91a1,1,0,0,0-1.61-.23,15,15,0,0,1-16.25.19A15.2,15.2,0,0,1,576.23-109a15.11,15.11,0,0,1,12-12.12c6.61-1.19,12,.94,15.75,6.51s3.51,11.21.13,16.83c-.37.61-.36.9.15,1.4,2.86,2.8,5.69,5.66,8.52,8.5A7.67,7.67,0,0,1,613.32-87.33Zm-22-29.54a10.48,10.48,0,0,0-10.71,10.68A10.46,10.46,0,0,0,591.27-95.5,10.56,10.56,0,0,0,602-106.17,10.59,10.59,0,0,0,591.29-116.87Z" transform="translate(-575.98 121.47)"/></svg>