<svg id="Capa_1" data-name="Capa 1" xmlns="http://www.w3.org/2000/svg" viewBox="0 0 87.36 71"><defs><style>.cls-1{fill:#fff;}</style></defs><path class="cls-1" d="M573.86-87.63c33,0,51-27.31,51-51,0-.78,0-1.55-.05-2.32a36.52,36.52,0,0,0,8.94-9.28,35.57,35.57,0,0,1-10.29,2.82,18,18,0,0,0,7.88-9.91A36.21,36.21,0,0,1,620-153a17.91,17.91,0,0,0-13.09-5.67A17.92,17.92,0,0,0,589-140.7a17.72,17.72,0,0,0,.46,4.08,50.87,50.87,0,0,1-36.94-18.72,17.86,17.86,0,0,0-2.43,9,17.92,17.92,0,0,0,8,14.92,17.71,17.71,0,0,1-8.12-2.25,1.77,1.77,0,0,0,0,.23,17.93,17.93,0,0,0,14.38,17.57,17.92,17.92,0,0,1-4.72.63,17.75,17.75,0,0,1-3.37-.32,18,18,0,0,0,16.74,12.45,35.93,35.93,0,0,1-22.26,7.67,35.48,35.48,0,0,1-4.27-.25,50.67,50.67,0,0,0,27.47,8.05" transform="translate(-546.39 158.63)"/></svg>